<?xml version="1.0" encoding="UTF-8"?>
<svg id="Capa_1" data-name="Capa 1" xmlns="http://www.w3.org/2000/svg" viewBox="0 0 339.05 275.05">
  <g>
    <path d="M192.67,97.21c0-6.01,4.87-10.88,10.88-10.88h41.63v-7.62h-110.2c-5.2,0-9.42,4.22-9.42,9.42v18.43c0,5.2,4.22,9.42,9.42,9.42h110.2v-7.9h-41.63c-6.01,0-10.88-4.87-10.88-10.88Z" fill="#1f2a44"/>
    <path d="M226.19,92.45h17.39c1.27,0,1.27-1.98,0-1.98h-17.39c-1.27,0-1.27,1.98,0,1.98h0Z" fill="#1f2a44"/>
    <path d="M226.19,98.41h17.39c1.27,0,1.27-1.98,0-1.98h-17.39c-1.27,0-1.27,1.98,0,1.98h0Z" fill="#1f2a44"/>
    <path d="M226.19,104.37h17.39c1.27,0,1.27-1.98,0-1.98h-17.39c-1.27,0-1.27,1.98,0,1.98h0Z" fill="#1f2a44"/>
  </g>
  <g>
    <path d="M208.93,53.22c0-6.01,4.87-10.88,10.88-10.88h25.36v-7.62h-78.52c-5.2,0-9.42,4.22-9.42,9.42v18.43c0,5.2,4.22,9.42,9.42,9.42h78.52v-7.9h-25.36c-6.01,0-10.88-4.87-10.88-10.88Z" fill="#1f2a44"/>
    <path d="M230.73,48.32h12.61c1.08,0,1.08-1.68,0-1.68h-12.61c-1.08,0-1.08,1.68,0,1.68h0Z" fill="#1f2a44"/>
    <path d="M230.73,54.27h12.61c1.08,0,1.08-1.68,0-1.68h-12.61c-1.08,0-1.08,1.68,0,1.68h0Z" fill="#1f2a44"/>
    <path d="M230.73,60.23h12.61c1.08,0,1.08-1.68,0-1.68h-12.61c-1.08,0-1.08,1.68,0,1.68h0Z" fill="#1f2a44"/>
  </g>
  <g>
    <path d="M213.35,137.08h29.37c1.65,0,1.66-2.57,0-2.57h-29.37c-1.65,0-1.66,2.57,0,2.57h0Z" fill="#1f2a44"/>
    <path d="M213.35,143.04h29.37c1.65,0,1.66-2.57,0-2.57h-29.37c-1.65,0-1.66,2.57,0,2.57h0Z" fill="#1f2a44"/>
    <path d="M213.35,149h29.37c1.65,0,1.66-2.57,0-2.57h-29.37c-1.65,0-1.66,2.57,0,2.57h0Z" fill="#1f2a44"/>
    <polygon points="207.27 166.66 201.57 161.32 195.86 166.66 195.86 147.71 207.27 147.71 207.27 166.66" fill="#ea4e6e"/>
    <path d="M103.3,123.05c-5.2,0-9.42,4.22-9.42,9.42v18.43c0,5.2,4.22,9.42,9.42,9.42h90.56v-7.9h-4.87c-6.01,0-10.88-4.87-10.88-10.88s4.87-10.88,10.88-10.88h56.18v-7.62H103.3Z" fill="#1f2a44"/>
    <rect x="208.9" y="152.42" width="36.27" height="7.9" fill="#1f2a44"/>
  </g>
  <text transform="translate(37.04 200.63)" fill="#1f2a44" font-size="41.47"><tspan x="0" y="0" font-family="MontserratRoman-ExtraBold, Montserrat" font-variation-settings="&apos;wght&apos; 800" font-weight="700">N</tspan><tspan x="33.42" y="0" font-family="MontserratRoman-ExtraBold, Montserrat" font-variation-settings="&apos;wght&apos; 800" font-weight="700" letter-spacing="-.01em">e</tspan><tspan x="59.42" y="0" font-family="MontserratRoman-ExtraBold, Montserrat" font-variation-settings="&apos;wght&apos; 800" font-weight="700">xt</tspan><tspan x="103.63" y="0" font-family="MontserratRoman-Regular, Montserrat" font-variation-settings="&apos;wght&apos; 400" letter-spacing="0em">c</tspan><tspan x="126.64" y="0" font-family="MontserratRoman-Regular, Montserrat" font-variation-settings="&apos;wght&apos; 400">hap</tspan><tspan x="207.25" y="0" font-family="MontserratRoman-Regular, Montserrat" font-variation-settings="&apos;wght&apos; 400" letter-spacing="-.02em">t</tspan><tspan x="223.3" y="0" font-family="MontserratRoman-Regular, Montserrat" font-variation-settings="&apos;wght&apos; 400">er</tspan></text>
  <text transform="translate(5.25 221.37)" fill="#ea4e6e" font-family="MontserratRoman-Regular, Montserrat" font-size="12.46" font-variation-settings="&apos;wght&apos; 400"><tspan x="0" y="0" letter-spacing=".2em">Un uni</tspan><tspan x="56.67" y="0" letter-spacing=".19em">v</tspan><tspan x="65.73" y="0" letter-spacing=".2em">e</tspan><tspan x="75.75" y="0" letter-spacing=".2em">r</tspan><tspan x="83.22" y="0" letter-spacing=".2em">so de his</tspan><tspan x="159.92" y="0" letter-spacing=".18em">t</tspan><tspan x="167.23" y="0" letter-spacing=".2em">o</tspan><tspan x="177.54" y="0" letter-spacing=".19em">r</tspan><tspan x="184.93" y="0" letter-spacing=".2em">ias por descub</tspan><tspan x="310.31" y="0" letter-spacing=".19em">r</tspan><tspan x="317.7" y="0" letter-spacing=".2em">ir</tspan></text>
</svg>