<?xml version="1.0" encoding="UTF-8"?>
<svg id="Capa_1" data-name="Capa 1" xmlns="http://www.w3.org/2000/svg" viewBox="0 0 703.22 132.9">
  <g>
    <g>
      <path d="M66.82,55.4c0-4.35,2.93-7.87,6.54-7.87h25.04v-5.51H32.12c-3.13,0-5.67,3.05-5.67,6.82v13.33c0,3.76,2.54,6.82,5.67,6.82h66.28v-5.71h-25.04c-3.61,0-6.54-3.52-6.54-7.87Z"/>
      <path d="M86.98,51.96h10.46c.76,0,.77-1.43,0-1.43h-10.46c-.76,0-.77,1.43,0,1.43h0Z"/>
      <path d="M86.98,56.27h10.46c.76,0,.77-1.43,0-1.43h-10.46c-.76,0-.77,1.43,0,1.43h0Z"/>
      <path d="M86.98,60.58h10.46c.76,0,.77-1.43,0-1.43h-10.46c-.76,0-.77,1.43,0,1.43h0Z"/>
    </g>
    <g>
      <path d="M76.6,23.57c0-4.35,2.93-7.87,6.54-7.87h15.25v-5.51h-47.23c-3.13,0-5.67,3.05-5.67,6.82v13.33c0,3.76,2.54,6.82,5.67,6.82h47.23v-5.71h-15.25c-3.61,0-6.54-3.52-6.54-7.87Z"/>
      <path d="M89.71,20.02h7.58c.65,0,.65-1.22,0-1.22h-7.58c-.65,0-.65,1.22,0,1.22h0Z"/>
      <path d="M89.71,24.33h7.58c.65,0,.65-1.22,0-1.22h-7.58c-.65,0-.65,1.22,0,1.22h0Z"/>
      <path d="M89.71,28.64h7.58c.65,0,.65-1.22,0-1.22h-7.58c-.65,0-.65,1.22,0,1.22h0Z"/>
    </g>
    <g>
      <path d="M79.26,84.25h17.67c.99,0,1-1.86,0-1.86h-17.67c-.99,0-1,1.86,0,1.86h0Z"/>
      <path d="M79.26,88.56h17.67c.99,0,1-1.86,0-1.86h-17.67c-.99,0-1,1.86,0,1.86h0Z"/>
      <path d="M79.26,92.87h17.67c.99,0,1-1.86,0-1.86h-17.67c-.99,0-1,1.86,0,1.86h0Z"/>
      <polygon points="75.6 105.65 72.17 101.79 68.74 105.65 68.74 91.94 75.6 91.94 75.6 105.65"/>
      <path d="M13.07,74.1c-3.13,0-5.67,3.05-5.67,6.82v13.33c0,3.76,2.54,6.82,5.67,6.82h54.47v-5.71h-2.93c-3.61,0-6.54-3.52-6.54-7.87s2.93-7.87,6.54-7.87h33.79v-5.51H13.07Z"/>
      <rect x="76.58" y="95.35" width="21.81" height="5.71"/>
    </g>
  </g>
  <text transform="translate(109.12 101.06) scale(.83 1)" font-size="109.59"><tspan x="0" y="0" font-family="MontserratRoman-ExtraBold, Montserrat" font-variation-settings="&apos;wght&apos; 800" font-weight="700">N</tspan><tspan x="88.33" y="0" font-family="MontserratRoman-ExtraBold, Montserrat" font-variation-settings="&apos;wght&apos; 800" font-weight="700" letter-spacing="-.02em">e</tspan><tspan x="157.05" y="0" font-family="MontserratRoman-ExtraBold, Montserrat" font-variation-settings="&apos;wght&apos; 800" font-weight="700" letter-spacing="0em">xt</tspan><tspan x="273.87" y="0" font-family="MontserratRoman-Regular, Montserrat" font-variation-settings="&apos;wght&apos; 400" letter-spacing="0em">c</tspan><tspan x="334.7" y="0" font-family="MontserratRoman-Regular, Montserrat" font-variation-settings="&apos;wght&apos; 400">hap</tspan><tspan x="547.75" y="0" font-family="MontserratRoman-Regular, Montserrat" font-variation-settings="&apos;wght&apos; 400" letter-spacing="-.02em">t</tspan><tspan x="590.16" y="0" font-family="MontserratRoman-Regular, Montserrat" font-variation-settings="&apos;wght&apos; 400">er</tspan></text>
</svg>