<?xml version="1.0" encoding="UTF-8"?>
<svg id="Capa_1" data-name="Capa 1" xmlns="http://www.w3.org/2000/svg" viewBox="0 0 329.9 275.05">
  <g>
    <path d="M188.09,109.38c0-6.01,4.87-10.88,10.88-10.88h41.63v-7.62h-110.2c-5.2,0-9.42,4.22-9.42,9.42v18.43c0,5.2,4.22,9.42,9.42,9.42h110.2v-7.9h-41.63c-6.01,0-10.88-4.87-10.88-10.88Z" stroke="#1d1d1b" stroke-miterlimit="10" stroke-width=".86"/>
    <path d="M221.62,104.62h17.39c1.27,0,1.27-1.98,0-1.98h-17.39c-1.27,0-1.27,1.98,0,1.98h0Z" fill="#1d1d1b"/>
    <path d="M221.62,110.57h17.39c1.27,0,1.27-1.98,0-1.98h-17.39c-1.27,0-1.27,1.98,0,1.98h0Z" fill="#1d1d1b"/>
    <path d="M221.62,116.53h17.39c1.27,0,1.27-1.98,0-1.98h-17.39c-1.27,0-1.27,1.98,0,1.98h0Z" fill="#1d1d1b"/>
  </g>
  <g>
    <path d="M204.36,65.39c0-6.01,4.87-10.88,10.88-10.88h25.36v-7.62h-78.52c-5.2,0-9.42,4.22-9.42,9.42v18.43c0,5.2,4.22,9.42,9.42,9.42h78.52v-7.9h-25.36c-6.01,0-10.88-4.87-10.88-10.88Z" stroke="#1d1d1b" stroke-miterlimit="10" stroke-width=".86"/>
    <path d="M226.16,60.48h12.61c1.08,0,1.08-1.68,0-1.68h-12.61c-1.08,0-1.08,1.68,0,1.68h0Z" fill="#1d1d1b"/>
    <path d="M226.16,66.44h12.61c1.08,0,1.08-1.68,0-1.68h-12.61c-1.08,0-1.08,1.68,0,1.68h0Z" fill="#1d1d1b"/>
    <path d="M226.16,72.4h12.61c1.08,0,1.08-1.68,0-1.68h-12.61c-1.08,0-1.08,1.68,0,1.68h0Z" fill="#1d1d1b"/>
  </g>
  <g>
    <path d="M208.78,149.25h29.37c1.65,0,1.66-2.57,0-2.57h-29.37c-1.65,0-1.66,2.57,0,2.57h0Z" fill="#1d1d1b"/>
    <path d="M208.78,155.2h29.37c1.65,0,1.66-2.57,0-2.57h-29.37c-1.65,0-1.66,2.57,0,2.57h0Z" fill="#1d1d1b"/>
    <path d="M208.78,161.16h29.37c1.65,0,1.66-2.57,0-2.57h-29.37c-1.65,0-1.66,2.57,0,2.57h0Z" fill="#1d1d1b"/>
    <polygon points="202.7 178.83 196.99 173.49 191.29 178.83 191.29 159.88 202.7 159.88 202.7 178.83" stroke="#1d1d1b" stroke-miterlimit="10" stroke-width=".11"/>
    <path d="M98.73,135.22c-5.2,0-9.42,4.22-9.42,9.42v18.43c0,5.2,4.22,9.42,9.42,9.42h90.56v-7.9h-4.87c-6.01,0-10.88-4.87-10.88-10.88s4.87-10.88,10.88-10.88h56.18v-7.62H98.73Z" stroke="#1d1d1b" stroke-miterlimit="10" stroke-width=".86"/>
    <rect x="204.33" y="164.59" width="36.27" height="7.9" stroke="#1d1d1b" stroke-miterlimit="10" stroke-width=".86"/>
  </g>
  <text transform="translate(50.4 212.8)" font-size="41.47"><tspan x="0" y="0" font-family="Lato-Black, Lato" font-weight="800">N</tspan><tspan x="31.35" y="0" font-family="Lato-Black, Lato" font-weight="800" letter-spacing="-.03em">e</tspan><tspan x="52.66" y="0" font-family="Lato-Black, Lato" font-weight="800">xt</tspan><tspan x="93.01" y="0" font-family="Lato-Light, Lato" font-weight="300">chapter</tspan></text>
  <text transform="translate(15.61 233.53)" font-family="Lato-Regular, Lato" font-size="12.46"><tspan x="0" y="0" letter-spacing=".2em">Un uni</tspan><tspan x="50.44" y="0" letter-spacing=".19em">v</tspan><tspan x="59.15" y="0" letter-spacing=".2em">erso de historias por descubrir</tspan></text>
</svg>