<?xml version="1.0" encoding="UTF-8"?>
<svg id="Capa_1" data-name="Capa 1" xmlns="http://www.w3.org/2000/svg" viewBox="0 0 329.9 275.05">
  <g>
    <path d="M190.85,99.57c0-6.01,4.87-10.88,10.88-10.88h41.63v-7.62h-110.2c-5.2,0-9.42,4.22-9.42,9.42v18.43c0,5.2,4.22,9.42,9.42,9.42h110.2v-7.9h-41.63c-6.01,0-10.88-4.87-10.88-10.88Z" fill="#fff"/>
    <path d="M224.37,94.81h17.39c1.27,0,1.27-1.98,0-1.98h-17.39c-1.27,0-1.27,1.98,0,1.98h0Z" fill="#fff"/>
    <path d="M224.37,100.77h17.39c1.27,0,1.27-1.98,0-1.98h-17.39c-1.27,0-1.27,1.98,0,1.98h0Z" fill="#fff"/>
    <path d="M224.37,106.72h17.39c1.27,0,1.27-1.98,0-1.98h-17.39c-1.27,0-1.27,1.98,0,1.98h0Z" fill="#fff"/>
  </g>
  <g>
    <path d="M207.11,55.58c0-6.01,4.87-10.88,10.88-10.88h25.36v-7.62h-78.52c-5.2,0-9.42,4.22-9.42,9.42v18.43c0,5.2,4.22,9.42,9.42,9.42h78.52v-7.9h-25.36c-6.01,0-10.88-4.87-10.88-10.88Z" fill="#fff"/>
    <path d="M228.91,50.68h12.61c1.08,0,1.08-1.68,0-1.68h-12.61c-1.08,0-1.08,1.68,0,1.68h0Z" fill="#fff"/>
    <path d="M228.91,56.63h12.61c1.08,0,1.08-1.68,0-1.68h-12.61c-1.08,0-1.08,1.68,0,1.68h0Z" fill="#fff"/>
    <path d="M228.91,62.59h12.61c1.08,0,1.08-1.68,0-1.68h-12.61c-1.08,0-1.08,1.68,0,1.68h0Z" fill="#fff"/>
  </g>
  <g>
    <path d="M211.53,139.44h29.37c1.65,0,1.66-2.57,0-2.57h-29.37c-1.65,0-1.66,2.57,0,2.57h0Z" fill="#fff"/>
    <path d="M211.53,145.4h29.37c1.65,0,1.66-2.57,0-2.57h-29.37c-1.65,0-1.66,2.57,0,2.57h0Z" fill="#fff"/>
    <path d="M211.53,151.35h29.37c1.65,0,1.66-2.57,0-2.57h-29.37c-1.65,0-1.66,2.57,0,2.57h0Z" fill="#fff"/>
    <polygon points="205.45 169.02 199.75 163.68 194.04 169.02 194.04 150.07 205.45 150.07 205.45 169.02" fill="#fff"/>
    <path d="M101.48,125.41c-5.2,0-9.42,4.22-9.42,9.42v18.43c0,5.2,4.22,9.42,9.42,9.42h90.56v-7.9h-4.87c-6.01,0-10.88-4.87-10.88-10.88s4.87-10.88,10.88-10.88h56.18v-7.62H101.48Z" fill="#fff"/>
    <rect x="207.08" y="154.78" width="36.27" height="7.9" fill="#fff"/>
  </g>
  <text transform="translate(53.15 202.99)" fill="#fff" font-size="41.47"><tspan x="0" y="0" font-family="Lato-Black, Lato" font-weight="800">N</tspan><tspan x="31.35" y="0" font-family="Lato-Black, Lato" font-weight="800" letter-spacing="-.03em">e</tspan><tspan x="52.66" y="0" font-family="Lato-Black, Lato" font-weight="800">xt</tspan><tspan x="93.01" y="0" font-family="Lato-Light, Lato" font-weight="300">chapter</tspan></text>
</svg>