<?xml version="1.0" encoding="UTF-8"?>
<svg id="Capa_1" data-name="Capa 1" xmlns="http://www.w3.org/2000/svg" viewBox="0 0 329.9 275.05">
  <g>
    <path d="M188.09,97.21c0-6.01,4.87-10.88,10.88-10.88h41.63v-7.62h-110.2c-5.2,0-9.42,4.22-9.42,9.42v18.43c0,5.2,4.22,9.42,9.42,9.42h110.2v-7.9h-41.63c-6.01,0-10.88-4.87-10.88-10.88Z" fill="#1f2a44"/>
    <path d="M221.62,92.45h17.39c1.27,0,1.27-1.98,0-1.98h-17.39c-1.27,0-1.27,1.98,0,1.98h0Z" fill="#1f2a44"/>
    <path d="M221.62,98.41h17.39c1.27,0,1.27-1.98,0-1.98h-17.39c-1.27,0-1.27,1.98,0,1.98h0Z" fill="#1f2a44"/>
    <path d="M221.62,104.37h17.39c1.27,0,1.27-1.98,0-1.98h-17.39c-1.27,0-1.27,1.98,0,1.98h0Z" fill="#1f2a44"/>
  </g>
  <g>
    <path d="M204.36,53.22c0-6.01,4.87-10.88,10.88-10.88h25.36v-7.62h-78.52c-5.2,0-9.42,4.22-9.42,9.42v18.43c0,5.2,4.22,9.42,9.42,9.42h78.52v-7.9h-25.36c-6.01,0-10.88-4.87-10.88-10.88Z" fill="#1f2a44"/>
    <path d="M226.16,48.32h12.61c1.08,0,1.08-1.68,0-1.68h-12.61c-1.08,0-1.08,1.68,0,1.68h0Z" fill="#1f2a44"/>
    <path d="M226.16,54.27h12.61c1.08,0,1.08-1.68,0-1.68h-12.61c-1.08,0-1.08,1.68,0,1.68h0Z" fill="#1f2a44"/>
    <path d="M226.16,60.23h12.61c1.08,0,1.08-1.68,0-1.68h-12.61c-1.08,0-1.08,1.68,0,1.68h0Z" fill="#1f2a44"/>
  </g>
  <g>
    <path d="M208.78,137.08h29.37c1.65,0,1.66-2.57,0-2.57h-29.37c-1.65,0-1.66,2.57,0,2.57h0Z" fill="#1f2a44"/>
    <path d="M208.78,143.04h29.37c1.65,0,1.66-2.57,0-2.57h-29.37c-1.65,0-1.66,2.57,0,2.57h0Z" fill="#1f2a44"/>
    <path d="M208.78,149h29.37c1.65,0,1.66-2.57,0-2.57h-29.37c-1.65,0-1.66,2.57,0,2.57h0Z" fill="#1f2a44"/>
    <polygon points="202.7 166.66 196.99 161.32 191.29 166.66 191.29 147.71 202.7 147.71 202.7 166.66" fill="#ea4e6e"/>
    <path d="M98.73,123.05c-5.2,0-9.42,4.22-9.42,9.42v18.43c0,5.2,4.22,9.42,9.42,9.42h90.56v-7.9h-4.87c-6.01,0-10.88-4.87-10.88-10.88s4.87-10.88,10.88-10.88h56.18v-7.62H98.73Z" fill="#1f2a44"/>
    <rect x="204.33" y="152.42" width="36.27" height="7.9" fill="#1f2a44"/>
  </g>
  <text transform="translate(32.46 200.63)" fill="#1f2a44" font-size="41.47"><tspan x="0" y="0" font-family="MontserratRoman-ExtraBold, Montserrat" font-variation-settings="&apos;wght&apos; 800" font-weight="700">N</tspan><tspan x="33.42" y="0" font-family="MontserratRoman-ExtraBold, Montserrat" font-variation-settings="&apos;wght&apos; 800" font-weight="700" letter-spacing="-.01em">e</tspan><tspan x="59.42" y="0" font-family="MontserratRoman-ExtraBold, Montserrat" font-variation-settings="&apos;wght&apos; 800" font-weight="700">xt</tspan><tspan x="103.63" y="0" font-family="MontserratRoman-Regular, Montserrat" font-variation-settings="&apos;wght&apos; 400" letter-spacing="0em">c</tspan><tspan x="126.64" y="0" font-family="MontserratRoman-Regular, Montserrat" font-variation-settings="&apos;wght&apos; 400">hap</tspan><tspan x="207.25" y="0" font-family="MontserratRoman-Regular, Montserrat" font-variation-settings="&apos;wght&apos; 400" letter-spacing="-.02em">t</tspan><tspan x="223.3" y="0" font-family="MontserratRoman-Regular, Montserrat" font-variation-settings="&apos;wght&apos; 400">er</tspan></text>
</svg>